<svg version="1.1" id="Layer_1" xmlns="http://www.w3.org/2000/svg" xmlns:xlink="http://www.w3.org/1999/xlink" x="0px" y="0px"
	 width="100%" viewBox="0 0 214 230" enable-background="new 0 0 214 230" xml:space="preserve">
<path fill="#020202" opacity="1.000000" stroke="none" 
	d="
M1.000000,89.000000 
	C1.000000,59.333340 1.000000,30.166677 1.000000,1.000012 
	C72.333313,1.000008 143.666626,1.000008 214.999954,1.000004 
	C214.999969,77.666634 214.999969,154.333267 214.999985,230.999939 
	C143.666718,230.999954 72.333420,230.999954 1.000067,230.999969 
	C1.000000,183.833328 1.000000,136.666672 1.000000,89.000000 
M46.306313,92.762238 
	C46.446590,94.439888 46.586864,96.117531 46.727139,97.795174 
	C47.134838,97.821915 47.542538,97.848648 47.950241,97.875389 
	C48.297218,95.916962 48.644199,93.958534 49.329575,91.441345 
	C49.384541,91.016151 49.439507,90.590958 49.822174,89.446220 
	C50.199100,83.389305 50.576023,77.332382 51.369667,70.873512 
	C51.917332,70.698570 52.464996,70.523628 53.780880,70.757683 
	C59.836102,71.894066 65.891327,73.030441 72.305389,74.597229 
	C72.838005,74.763763 73.370621,74.930290 73.589188,75.921280 
	C68.167267,75.921280 62.745342,75.921280 56.954998,75.921280 
	C56.661388,76.919518 56.010872,78.155960 55.972889,79.410950 
	C55.587517,92.144058 54.979431,104.885185 55.176388,117.612564 
	C55.239182,121.670204 57.249390,125.809052 58.931969,129.664856 
	C59.461452,130.878235 61.827648,131.290100 63.353195,132.068817 
	C63.477753,131.725296 63.602306,131.381790 63.726860,131.038269 
	C62.619251,128.856293 61.511642,126.674301 60.842159,124.136757 
	C60.978153,124.006836 61.114151,123.876907 61.925293,123.905952 
	C62.842155,124.621422 63.654232,125.666817 64.693489,125.996880 
	C70.005432,127.683929 75.934647,131.378799 80.583527,130.194168 
	C86.294655,128.738876 91.628510,128.794968 97.126015,129.005783 
	C109.277809,129.471756 121.407051,130.944931 133.583862,129.802704 
	C137.470154,129.438141 139.917313,130.548935 140.883438,134.614594 
	C141.214676,136.008530 142.541748,137.165817 143.788467,138.974792 
	C145.518417,136.911896 147.129639,135.601318 147.956207,133.907791 
	C154.276672,120.957932 159.469681,107.846695 152.916595,93.268791 
	C150.399277,87.668800 148.222809,81.916473 145.809067,76.268578 
	C145.000702,74.377121 143.938004,72.594368 143.423004,71.597244 
	C140.332108,73.157104 137.903183,75.237183 135.245987,75.587975 
	C115.002937,78.260338 94.802429,76.615982 74.264435,73.912132 
	C73.514580,73.260979 72.764732,72.609833 71.785088,71.324211 
	C69.108757,68.759521 66.432426,66.194824 63.430977,63.052998 
	C62.646748,62.301224 61.862514,61.549454 60.807205,60.078754 
	C59.910221,58.504517 59.013233,56.930279 58.116245,55.356041 
	C67.215904,57.615307 77.090012,57.364052 81.309364,67.749176 
	C82.061646,69.600784 85.312103,71.464691 87.477524,71.548256 
	C101.599556,72.093193 115.741234,72.286995 129.874329,72.208405 
	C131.884674,72.197227 134.212540,70.425667 135.811783,68.870651 
	C138.331787,66.420319 140.358322,63.462479 143.092209,60.107849 
	C148.123886,71.085114 152.628647,80.912827 157.133408,90.740540 
	C159.487549,81.380623 160.803543,72.201752 162.140442,63.025932 
	C162.778305,58.648117 161.752396,55.466743 156.114777,55.540611 
	C158.201187,48.281498 160.143158,41.524925 162.430405,33.567066 
	C149.288483,37.158474 145.585068,29.323931 143.326431,19.721233 
	C143.250885,19.400078 143.163971,19.063021 142.996826,18.784771 
	C140.326294,14.339570 137.641846,9.902752 135.961060,7.120282 
	C129.201904,8.435972 124.368576,9.638444 119.461906,10.280068 
	C107.452469,11.850491 95.456375,12.896359 83.560890,9.029623 
	C81.975693,8.514338 79.085884,9.480034 77.869026,10.768938 
	C68.980728,20.183493 60.909603,30.105740 62.052128,44.306808 
	C62.106956,44.988338 61.829414,45.696609 61.401905,48.119762 
	C58.208691,40.373318 55.332340,34.153946 46.342255,37.801685 
	C46.342255,55.103870 46.342255,72.548195 46.174393,90.668419 
	C46.272549,91.115921 46.370701,91.563431 46.306313,92.762238 
M121.924751,218.986725 
	C126.400032,218.989105 130.878799,219.083252 135.347580,218.913971 
	C136.208237,218.881363 137.169983,217.928207 137.785324,217.159683 
	C137.973953,216.924103 137.244003,215.393616 136.794708,215.320862 
	C135.801239,215.160004 134.662582,215.392578 133.685059,215.746323 
	C131.898666,216.392761 130.247192,217.623093 128.427856,217.915405 
	C126.002449,218.305099 123.470497,218.031693 120.176620,218.018646 
	C118.900375,217.794220 117.133560,218.026978 116.428436,217.270309 
	C112.220779,212.755234 109.174980,217.026917 105.657204,217.542999 
	C105.683975,218.016174 105.710739,218.489349 105.737511,218.962524 
	C110.820381,218.962524 115.903259,218.962524 121.924751,218.986725 
M84.867996,218.968155 
	C87.376686,218.968155 89.885376,218.968155 92.394066,218.968155 
	C92.443443,218.468018 92.492813,217.967880 92.542191,217.467758 
	C89.688080,216.672501 86.833977,215.877243 83.075371,215.042572 
	C80.054886,215.057205 77.034401,215.071854 73.077507,215.034409 
	C68.788872,215.029816 64.492378,214.883759 60.217175,215.121063 
	C59.161324,215.179657 58.174629,216.484161 57.156143,217.215927 
	C58.157650,217.808029 59.142811,218.875519 60.163475,218.910614 
	C64.775063,219.069229 69.396690,218.935760 74.917572,218.966354 
	C77.937302,218.945389 80.957039,218.924423 84.867996,218.968155 
M102.101433,156.945877 
	C99.405228,156.980453 96.709030,157.015030 93.273026,157.104050 
	C85.406197,159.403915 78.691765,163.224503 74.407219,171.431366 
	C69.357811,180.767593 69.932007,190.153717 74.797951,199.226471 
	C75.927094,201.331818 78.834549,202.483414 80.964256,204.804092 
	C81.966064,206.206100 82.670334,208.304016 84.024101,208.882858 
	C88.528366,210.808731 93.251617,213.425461 97.917473,213.479385 
	C104.399315,213.554306 111.592598,213.434875 116.833321,206.998993 
	C117.914841,206.046982 118.996361,205.094955 120.665352,203.772949 
	C126.753433,196.909515 130.126740,189.316788 127.052505,179.191330 
	C126.035461,176.459885 125.018425,173.728455 123.902367,170.356659 
	C122.962502,169.506088 122.022636,168.655502 120.978844,167.148163 
	C116.748436,160.642670 110.483246,157.732758 102.101433,156.945877 
M146.141922,182.011307 
	C142.928070,183.040756 141.792862,184.531769 144.545898,187.543884 
	C143.396927,188.427612 142.247955,189.311340 141.098999,190.195068 
	C142.061264,190.811630 143.023514,191.428192 144.463989,192.115936 
	C144.463989,192.115936 144.945984,192.153702 145.333755,192.586060 
	C145.891510,192.712219 146.449249,192.838394 147.663788,193.008789 
	C148.102417,193.021973 148.541061,193.035156 149.265060,193.697968 
	C148.483643,194.465118 147.797623,195.728226 146.901779,195.900558 
	C144.756668,196.313202 142.512848,196.212738 140.101212,196.329437 
	C142.209244,201.557999 150.812714,204.863358 156.704575,202.927505 
	C161.972900,199.335052 162.734085,197.196075 160.901474,190.368546 
	C160.295883,189.864502 159.690292,189.360474 159.095200,188.416580 
	C159.095200,188.416580 159.054535,187.978500 159.026810,187.273010 
	C157.693924,185.504456 156.361053,183.735901 154.683762,181.457840 
	C153.790955,180.637512 152.898132,179.817184 151.704407,178.374084 
	C149.171738,176.739899 146.639069,175.105698 144.106400,173.471512 
	C143.762833,173.927628 143.419250,174.383743 143.075668,174.839859 
	C144.328674,177.192917 145.581665,179.545990 146.141922,182.011307 
M57.022747,152.934753 
	C57.024952,156.253006 56.915340,159.577118 57.088123,162.886459 
	C57.151245,164.095413 57.555763,165.628891 58.381069,166.385239 
	C60.160862,168.016342 69.695152,166.793304 71.957291,164.635422 
	C70.109222,163.237106 67.716179,162.224625 66.684906,160.429733 
	C65.573593,158.495560 64.815865,155.477203 65.547295,153.558273 
	C66.858383,150.118561 70.006981,148.347290 74.562477,149.534592 
	C75.729660,152.479233 76.896843,155.423889 78.252678,158.844467 
	C85.842232,155.076782 93.475525,151.291779 103.130989,152.613571 
	C112.321106,153.871674 118.550812,160.174103 126.600792,163.398499 
	C123.137932,159.354950 116.703171,156.855698 121.243683,149.514648 
	C121.400711,149.300705 121.605614,149.153259 122.765129,149.055862 
	C126.001709,149.752762 129.338318,150.164352 132.438217,151.251099 
	C134.367996,151.927643 135.939758,153.625336 137.672211,154.864731 
	C138.429871,152.783783 139.305603,150.735611 139.895981,148.608246 
	C140.196609,147.524933 139.876816,146.285461 140.024094,145.140579 
	C140.458176,141.766388 138.872070,140.924973 135.717911,140.944763 
	C115.143478,141.074036 94.568077,141.048294 73.095154,141.026932 
	C70.397514,141.052612 67.699867,141.078308 64.106628,141.029419 
	C56.972118,140.977142 56.968788,140.977158 56.992592,148.087463 
	C56.996964,149.393906 57.040581,150.700211 57.022747,152.934753 
M40.998096,195.998459 
	C40.998096,195.998459 40.974884,195.974777 41.385605,195.412018 
	C43.950741,194.277237 46.531002,193.175003 49.074448,191.993515 
	C50.292454,191.427719 51.440727,190.711792 52.620586,190.063858 
	C51.302658,189.048874 49.931461,187.110626 48.676273,187.183044 
	C43.926727,187.457077 39.196056,188.276077 34.494564,189.098373 
	C30.532043,189.791443 29.618580,192.686142 30.038702,196.208633 
	C30.727211,201.981384 33.610931,206.301208 36.934746,205.511841 
	C40.862370,204.579041 44.615227,202.600311 48.166607,200.586151 
	C49.204529,199.997498 49.296715,197.741302 49.822372,196.249435 
	C48.352280,195.956741 46.887402,195.466339 45.410614,195.427353 
	C43.952671,195.388855 42.482681,195.806931 40.998096,195.998459 
M18.233589,184.664078 
	C17.122847,186.565659 15.247846,188.384140 15.030524,190.382858 
	C13.953746,200.286102 20.240772,211.454834 27.282070,213.623520 
	C25.894711,209.003021 23.342209,204.144318 23.263237,199.245743 
	C23.179171,194.031326 25.436783,188.779160 26.717039,183.352432 
	C25.844992,183.460388 24.436558,183.692612 23.018749,183.794937 
	C21.407597,183.911179 19.788061,183.911255 17.744139,183.329285 
	C22.700760,181.205444 27.492315,178.398788 32.660343,177.149475 
	C37.846325,175.895828 40.993290,173.929291 41.075989,168.277054 
	C41.099789,166.650543 41.457878,164.922409 42.102531,163.430984 
	C44.238277,158.489853 42.435616,154.183472 40.557575,149.742111 
	C25.774576,156.821854 13.384422,165.870087 15.771692,183.643173 
	C16.603455,183.709213 17.448814,183.776337 18.233589,184.664078 
M166.862030,148.941483 
	C162.453720,154.020233 158.045410,159.098969 153.769424,164.025253 
	C149.944443,162.099579 150.098145,160.278198 151.944290,157.746231 
	C154.764160,153.878799 157.254654,149.771210 159.884979,145.765579 
	C159.683395,145.291809 159.481812,144.818024 159.280228,144.344238 
	C157.305008,144.696167 154.857544,144.444382 153.461334,145.536514 
	C151.165100,147.332642 148.715378,149.723862 147.843582,152.363892 
	C146.541733,156.306351 146.157333,160.691895 146.255432,164.868439 
	C146.283737,166.072891 149.412506,167.086823 150.935242,168.401855 
	C153.138687,170.304764 155.047546,172.562805 157.326462,174.359329 
	C158.803513,175.523682 160.733475,176.894958 162.430862,176.856750 
	C168.311127,176.724396 174.054626,176.635651 179.275116,179.955704 
	C180.729965,180.880936 182.336670,181.567444 184.007401,182.432709 
	C187.133057,167.911606 179.998184,153.645493 166.862030,148.941483 
M172.171524,209.549408 
	C170.139221,210.952118 168.235733,212.623672 166.036316,213.677689 
	C164.060349,214.624588 161.759323,214.893143 158.240524,215.819153 
	C168.545258,216.778137 174.867020,212.436127 180.148361,206.056854 
	C184.647720,200.622162 184.985474,197.254868 181.831299,192.067764 
	C177.596115,185.102936 172.609848,182.364517 166.077988,183.612686 
	C168.020767,185.988937 169.975571,188.204910 171.735352,190.566208 
	C176.382507,196.801865 176.659241,202.710068 172.171524,209.549408 
M66.826057,178.321930 
	C67.339752,175.936996 67.853455,173.552048 68.411545,170.960999 
	C64.704826,170.960999 61.482231,170.960999 58.169468,170.960999 
	C58.169468,175.403275 58.169468,179.460205 58.169468,183.595642 
	C60.822685,183.595642 63.084389,183.595642 65.452103,183.595642 
	C65.866554,181.963486 66.227310,180.542786 66.826057,178.321930 
M53.920933,181.726242 
	C49.320175,176.590561 35.217743,179.132919 32.176971,185.670456 
	C32.095482,185.845673 32.448128,186.222824 32.491524,186.304581 
	C39.384266,185.425079 46.177879,184.573196 52.961655,183.649063 
	C53.306248,183.602127 53.566010,182.932480 53.920933,181.726242 
M79.918060,136.997711 
	C87.065826,136.997711 94.213593,136.997711 101.361351,136.997711 
	C101.331551,136.478851 101.301743,135.959991 101.271942,135.441132 
	C93.064308,135.441132 84.856667,135.441132 76.649033,135.441132 
	C76.597252,135.753616 76.545479,136.066101 76.493698,136.378571 
	C77.341110,136.584274 78.188522,136.789963 79.918060,136.997711 
M165.796112,202.594360 
	C165.412735,201.537552 165.029373,200.480759 164.767639,199.759247 
	C161.833313,202.954239 158.927704,206.117981 156.253967,209.029251 
	C160.273117,209.460663 163.117508,206.553131 165.796112,202.594360 
M169.583542,90.698318 
	C170.569336,88.458374 171.555130,86.218422 172.535217,83.991440 
	C169.953918,82.918381 168.430954,82.285278 165.234070,80.956322 
	C166.774567,84.945358 167.828262,87.673874 169.583542,90.698318 
M48.714317,172.348221 
	C49.695297,172.372940 50.676281,172.397644 51.657261,172.422348 
	C51.657261,168.999512 51.657261,165.576660 51.657261,162.153824 
	C50.811306,162.108551 49.965351,162.063263 49.119396,162.017990 
	C48.873856,165.222595 48.628315,168.427216 48.714317,172.348221 
M70.776756,158.758408 
	C72.140442,157.665863 73.504135,156.573318 74.867821,155.480774 
	C73.903488,154.492142 73.090729,153.069778 71.923462,152.661880 
	C71.095329,152.372498 68.857658,153.468430 68.865204,153.918991 
	C68.890587,155.435455 69.638908,156.939850 70.776756,158.758408 
M65.178528,207.053909 
	C64.980759,207.666672 64.782997,208.279434 64.585236,208.892197 
	C68.164101,208.892197 71.742973,208.892197 75.321838,208.892197 
	C75.328102,208.268204 75.334366,207.644196 75.340630,207.020203 
	C72.233177,207.020203 69.125725,207.020203 65.178528,207.053909 
M183.998779,95.829514 
	C183.998779,98.676018 183.998779,101.522530 183.998779,104.369034 
	C184.268738,104.376122 184.538681,104.383209 184.808640,104.390289 
	C184.808640,100.294304 184.808640,96.198318 184.808640,92.102333 
	C184.538666,92.100212 184.268692,92.098099 183.998718,92.095978 
	C183.998718,93.067902 183.998718,94.039818 183.998779,95.829514 
M191.437805,194.913269 
	C191.664658,190.066086 191.891510,185.218903 192.118378,180.371735 
	C191.766006,180.370605 191.413635,180.369492 191.061264,180.368362 
	C191.061264,185.010864 191.061264,189.653366 191.437805,194.913269 
M180.652725,109.345131 
	C180.700104,109.671906 180.747482,109.998680 180.794876,110.325455 
	C180.887238,109.978371 180.979599,109.631279 180.652725,109.345131 
M183.579285,87.516403 
	C183.579285,87.516403 183.477798,87.575150 183.579285,87.516403 
z"/>
<path fill="#F9F9F9" opacity="1.000000" stroke="none" 
	d="
M63.756092,63.630131 
	C66.432426,66.194824 69.108757,68.759521 71.891205,72.009567 
	C71.980392,73.185547 71.963470,73.676186 71.946548,74.166817 
	C65.891327,73.030441 59.836102,71.894066 53.291977,70.288635 
	C51.892170,69.941093 50.981258,70.062599 50.070351,70.184113 
	C50.364552,70.547897 50.658752,70.911682 50.952950,71.275467 
	C50.576023,77.332382 50.199100,83.389305 49.265640,89.758476 
	C47.920155,90.044655 47.131207,90.018585 46.342255,89.992516 
	C46.342255,72.548195 46.342255,55.103870 46.342255,37.801685 
	C55.332340,34.153946 58.208691,40.373318 61.401905,48.119762 
	C61.829414,45.696609 62.106956,44.988338 62.052128,44.306808 
	C60.909603,30.105740 68.980728,20.183493 77.869026,10.768938 
	C79.085884,9.480034 81.975693,8.514338 83.560890,9.029623 
	C95.456375,12.896359 107.452469,11.850491 119.461906,10.280068 
	C124.368576,9.638444 129.201904,8.435972 135.961060,7.120282 
	C137.641846,9.902752 140.326294,14.339570 142.996826,18.784771 
	C143.163971,19.063021 143.250885,19.400078 143.326431,19.721233 
	C145.585068,29.323931 149.288483,37.158474 162.430405,33.567066 
	C160.143158,41.524925 158.201187,48.281498 156.114777,55.540611 
	C161.752396,55.466743 162.778305,58.648117 162.140442,63.025932 
	C160.803543,72.201752 159.487549,81.380623 157.133408,90.740540 
	C152.628647,80.912827 148.123886,71.085114 143.092209,60.107849 
	C140.358322,63.462479 138.331787,66.420319 135.811783,68.870651 
	C134.212540,70.425667 131.884674,72.197227 129.874329,72.208405 
	C115.741234,72.286995 101.599556,72.093193 87.477524,71.548256 
	C85.312103,71.464691 82.061646,69.600784 81.309364,67.749176 
	C77.090012,57.364052 67.215904,57.615307 58.116245,55.356041 
	C59.013233,56.930279 59.910221,58.504517 60.933792,60.855476 
	C61.958950,62.298176 62.857521,62.964153 63.756092,63.630131 
M104.225204,29.863562 
	C102.663338,29.886581 101.043320,30.190306 99.550301,29.881008 
	C94.696693,28.875526 89.906479,27.567278 85.060097,26.522943 
	C79.509285,25.326813 76.795868,26.979330 73.857086,34.365623 
	C80.403976,27.254662 87.295982,29.041065 93.049477,31.695793 
	C101.819214,35.742256 109.039871,32.538425 116.608780,28.769386 
	C112.741119,28.970602 108.873451,29.171818 104.225204,29.863562 
M107.677849,49.045788 
	C114.286552,47.895500 120.895256,46.745216 127.503960,45.594929 
	C127.424431,45.133236 127.344902,44.671539 127.265373,44.209846 
	C117.562012,44.209846 107.858650,44.209846 98.136055,44.209846 
	C98.234726,51.207611 102.747017,49.769188 107.677849,49.045788 
M84.301872,60.741207 
	C88.171585,61.241814 92.041298,61.742420 97.249847,62.416222 
	C95.317009,59.696835 94.405876,58.414925 93.521935,57.171276 
	C97.940590,52.844395 97.940590,52.844395 96.910568,49.858818 
	C92.783531,53.142925 88.489441,56.559967 84.301872,60.741207 
M142.179916,35.686359 
	C142.055588,34.252426 141.931259,32.818493 141.806931,31.384562 
	C141.352951,31.400986 140.898956,31.417412 140.444977,31.433836 
	C139.609283,37.161797 135.627304,42.245808 136.232025,48.268574 
	C137.094131,48.493961 137.956238,48.719349 138.818359,48.944736 
	C139.940277,44.814335 141.062210,40.683933 142.179916,35.686359 
M61.480053,68.087997 
	C61.246502,68.229904 61.012947,68.371811 60.779396,68.513718 
	C61.020447,68.645149 61.333801,68.937096 61.484974,68.868996 
	C61.692284,68.775604 61.776566,68.409103 61.480053,68.087997 
z"/>
<path fill="#F7F7F7" opacity="1.000000" stroke="none" 
	d="
M60.404030,124.492317 
	C61.511642,126.674301 62.619251,128.856293 63.726860,131.038269 
	C63.602306,131.381790 63.477753,131.725296 63.353195,132.068817 
	C61.827648,131.290100 59.461452,130.878235 58.931969,129.664856 
	C57.249390,125.809052 55.239182,121.670204 55.176388,117.612564 
	C54.979431,104.885185 55.587517,92.144058 55.972889,79.410950 
	C56.010872,78.155960 56.661388,76.919518 56.954998,75.921280 
	C62.745342,75.921280 68.167267,75.921280 73.932175,75.335999 
	C74.393738,74.629791 74.512314,74.508865 74.630882,74.387947 
	C94.802429,76.615982 115.002937,78.260338 135.245987,75.587975 
	C137.903183,75.237183 140.332108,73.157104 143.423004,71.597244 
	C143.938004,72.594368 145.000702,74.377121 145.809067,76.268578 
	C148.222809,81.916473 150.399277,87.668800 152.916595,93.268791 
	C159.469681,107.846695 154.276672,120.957932 147.956207,133.907791 
	C147.129639,135.601318 145.518417,136.911896 143.788467,138.974792 
	C142.541748,137.165817 141.214676,136.008530 140.883438,134.614594 
	C139.917313,130.548935 137.470154,129.438141 133.583862,129.802704 
	C121.407051,130.944931 109.277809,129.471756 97.126015,129.005783 
	C91.628510,128.794968 86.294655,128.738876 80.583527,130.194168 
	C75.934647,131.378799 70.005432,127.683929 64.693489,125.996880 
	C63.654232,125.666817 62.842155,124.621422 61.459648,123.623672 
	C60.797344,123.725037 60.600685,124.108681 60.404030,124.492317 
M110.833443,110.417961 
	C115.464798,119.486214 123.038094,123.380409 131.945953,121.274010 
	C140.110962,119.343277 146.051758,112.259140 146.020370,104.181992 
	C145.991348,96.709412 142.663528,91.068733 135.839249,87.845703 
	C128.790741,84.516800 121.762596,84.827362 115.756844,89.932648 
	C109.641418,95.131172 107.692741,101.903809 110.833443,110.417961 
M72.062408,86.028755 
	C63.441090,88.519852 58.394955,94.391106 57.907654,102.497993 
	C57.401947,110.911079 61.724991,117.892044 69.374435,121.014870 
	C76.506958,123.926674 85.009453,121.827469 90.194366,115.874611 
	C94.836563,110.544853 96.107018,102.173302 92.537987,95.838158 
	C88.308647,88.330963 81.564331,85.078835 72.062408,86.028755 
z"/>
<path fill="#F6F6F6" opacity="1.000000" stroke="none" 
	d="
M167.233246,148.852631 
	C179.998184,153.645493 187.133057,167.911606 184.007401,182.432709 
	C182.336670,181.567444 180.729965,180.880936 179.275116,179.955704 
	C174.054626,176.635651 168.311127,176.724396 162.430862,176.856750 
	C160.733475,176.894958 158.803513,175.523682 157.326462,174.359329 
	C155.047546,172.562805 153.138687,170.304764 150.935242,168.401855 
	C149.412506,167.086823 146.283737,166.072891 146.255432,164.868439 
	C146.157333,160.691895 146.541733,156.306351 147.843582,152.363892 
	C148.715378,149.723862 151.165100,147.332642 153.461334,145.536514 
	C154.857544,144.444382 157.305008,144.696167 159.280228,144.344238 
	C159.481812,144.818024 159.683395,145.291809 159.884979,145.765579 
	C157.254654,149.771210 154.764160,153.878799 151.944290,157.746231 
	C150.098145,160.278198 149.944443,162.099579 153.769424,164.025253 
	C158.045410,159.098969 162.453720,154.020233 167.233246,148.852631 
z"/>
<path fill="#282828" opacity="1.000000" stroke="none" 
	d="
M73.992981,141.073242 
	C94.568077,141.048294 115.143478,141.074036 135.717911,140.944763 
	C138.872070,140.924973 140.458176,141.766388 140.024094,145.140579 
	C139.876816,146.285461 140.196609,147.524933 139.895981,148.608246 
	C139.305603,150.735611 138.429871,152.783783 137.672211,154.864731 
	C135.939758,153.625336 134.367996,151.927643 132.438217,151.251099 
	C129.338318,150.164352 126.001709,149.752762 122.314529,148.661194 
	C120.565956,147.516312 119.278221,146.136581 117.968391,146.115295 
	C107.311096,145.941940 96.648842,145.962708 85.990662,146.109909 
	C84.795952,146.126419 83.617180,147.297745 82.431023,147.933533 
	C83.560326,148.633377 84.684944,149.931870 85.819664,149.940750 
	C97.569313,150.032669 109.320595,149.916641 121.071419,149.858429 
	C116.703171,156.855698 123.137932,159.354950 126.600792,163.398499 
	C118.550812,160.174103 112.321106,153.871674 103.130989,152.613571 
	C93.475525,151.291779 85.842232,155.076782 78.252678,158.844467 
	C76.896843,155.423889 75.729660,152.479233 74.283600,148.861511 
	C74.000816,145.816711 73.996902,143.444977 73.992981,141.073242 
z"/>
<path fill="#F7F7F7" opacity="1.000000" stroke="none" 
	d="
M18.294174,183.843460 
	C17.448814,183.776337 16.603455,183.709213 15.771692,183.643173 
	C13.384422,165.870087 25.774576,156.821854 40.557575,149.742111 
	C42.435616,154.183472 44.238277,158.489853 42.102531,163.430984 
	C41.457878,164.922409 41.099789,166.650543 41.075989,168.277054 
	C40.993290,173.929291 37.846325,175.895828 32.660343,177.149475 
	C27.492315,178.398788 22.700760,181.205444 17.997467,183.625046 
	C18.250793,183.920807 18.294174,183.843460 18.294174,183.843460 
z"/>
<path fill="#282828" opacity="1.000000" stroke="none" 
	d="
M41.017979,196.024719 
	C42.482681,195.806931 43.952671,195.388855 45.410614,195.427353 
	C46.887402,195.466339 48.352280,195.956741 49.822372,196.249420 
	C49.296715,197.741302 49.204529,199.997498 48.166607,200.586151 
	C44.615227,202.600311 40.862370,204.579041 36.934746,205.511841 
	C33.610931,206.301208 30.727211,201.981384 30.038702,196.208633 
	C29.618580,192.686142 30.532043,189.791443 34.494564,189.098373 
	C39.196056,188.276077 43.926727,187.457077 48.676273,187.183044 
	C49.931461,187.110626 51.302658,189.048874 52.620586,190.063843 
	C51.440727,190.711792 50.292454,191.427719 49.074448,191.993515 
	C46.531002,193.175003 43.950741,194.277237 40.942970,195.705627 
	C40.234222,196.130493 39.968113,196.261780 39.702003,196.393051 
	C40.140659,196.270264 40.579319,196.147491 41.017979,196.024719 
z"/>
<path fill="#F1F1F1" opacity="1.000000" stroke="none" 
	d="
M172.449066,209.281662 
	C176.659241,202.710068 176.382507,196.801865 171.735352,190.566208 
	C169.975571,188.204910 168.020767,185.988937 166.077988,183.612686 
	C172.609848,182.364517 177.596115,185.102936 181.831299,192.067764 
	C184.985474,197.254868 184.647720,200.622162 180.148361,206.056854 
	C174.867020,212.436127 168.545258,216.778137 158.240524,215.819153 
	C161.759323,214.893143 164.060349,214.624588 166.036316,213.677689 
	C168.235733,212.623672 170.139221,210.952118 172.449066,209.281662 
z"/>
<path fill="#2B2B2B" opacity="1.000000" stroke="none" 
	d="
M73.544067,141.050079 
	C73.996902,143.444977 74.000816,145.816711 74.009727,148.641037 
	C70.006981,148.347290 66.858383,150.118561 65.547295,153.558273 
	C64.815865,155.477203 65.573593,158.495560 66.684906,160.429733 
	C67.716179,162.224625 70.109222,163.237106 71.957291,164.635422 
	C69.695152,166.793304 60.160862,168.016342 58.381069,166.385239 
	C57.555763,165.628891 57.151245,164.095413 57.088123,162.886459 
	C56.915340,159.577118 57.024952,156.253006 57.478127,152.468491 
	C64.257347,151.951309 64.115425,151.964615 63.545265,145.880219 
	C63.401600,144.347122 64.483521,142.699158 65.002228,141.104004 
	C67.699867,141.078308 70.397514,141.052612 73.544067,141.050079 
z"/>
<path fill="#F2F2F2" opacity="1.000000" stroke="none" 
	d="
M18.211481,183.941315 
	C19.788061,183.911255 21.407597,183.911179 23.018749,183.794937 
	C24.436558,183.692612 25.844992,183.460388 26.717039,183.352432 
	C25.436783,188.779160 23.179171,194.031326 23.263237,199.245743 
	C23.342209,204.144318 25.894711,209.003021 27.282070,213.623520 
	C20.240772,211.454834 13.953746,200.286102 15.030524,190.382858 
	C15.247846,188.384140 17.122847,186.565659 18.263882,184.253769 
	C18.294174,183.843460 18.250793,183.920807 18.211481,183.941315 
z"/>
<path fill="#2C2C2C" opacity="1.000000" stroke="none" 
	d="
M148.979691,193.048340 
	C148.541061,193.035156 148.102417,193.021973 147.295822,192.694321 
	C146.267227,192.304474 145.606613,192.229095 144.945984,192.153717 
	C144.945984,192.153702 144.463989,192.115936 144.238983,191.704041 
	C145.096756,190.142471 146.179504,188.992813 147.479080,187.612930 
	C146.712921,187.419144 145.874130,187.206985 145.035339,186.994843 
	C141.792862,184.531769 142.928070,183.040756 146.847443,181.956848 
	C149.037079,180.933884 150.521194,179.965378 152.005310,178.996857 
	C152.898132,179.817184 153.790955,180.637512 154.694107,182.070496 
	C154.704453,185.298904 154.704453,187.914642 154.704453,191.358612 
	C156.960205,189.605835 158.007370,188.792160 159.054535,187.978500 
	C159.054535,187.978500 159.095200,188.416580 159.096863,188.969788 
	C159.714203,190.018723 160.329865,190.514435 160.945541,191.010147 
	C162.734085,197.196075 161.972900,199.335052 156.317780,202.668182 
	C155.276962,200.638489 154.733536,198.816742 153.940781,197.110870 
	C152.963089,195.007019 154.147629,190.079865 148.979691,193.048340 
z"/>
<path fill="#050505" opacity="1.000000" stroke="none" 
	d="
M121.157547,149.686539 
	C109.320595,149.916641 97.569313,150.032669 85.819664,149.940750 
	C84.684944,149.931870 83.560326,148.633377 82.431023,147.933533 
	C83.617180,147.297745 84.795952,146.126419 85.990662,146.109909 
	C96.648842,145.962708 107.311096,145.941940 117.968391,146.115295 
	C119.278221,146.136581 120.565956,147.516312 121.861160,148.669403 
	C121.605614,149.153259 121.400711,149.300705 121.157547,149.686539 
z"/>
<path fill="#282828" opacity="1.000000" stroke="none" 
	d="
M80.923737,204.073883 
	C78.834549,202.483414 75.927094,201.331818 74.797951,199.226471 
	C69.932007,190.153717 69.357811,180.767593 75.015945,171.240891 
	C76.446671,171.372894 77.268677,171.695389 78.057281,172.414154 
	C75.098373,181.849472 74.160309,190.712341 79.830215,199.214813 
	C80.682327,200.492630 80.684570,202.337189 81.041046,203.958313 
	C81.002136,203.997025 80.923737,204.073883 80.923737,204.073883 
z"/>
<path fill="#282828" opacity="1.000000" stroke="none" 
	d="
M116.188889,207.113190 
	C111.592598,213.434875 104.399315,213.554306 97.917473,213.479385 
	C93.251617,213.425461 88.528366,210.808731 84.024101,208.882858 
	C82.670334,208.304016 81.966064,206.206100 80.944000,204.438995 
	C80.923737,204.073883 81.002136,203.997025 81.419968,203.963837 
	C84.788147,205.264389 87.635468,206.941330 90.709213,207.864044 
	C98.306923,210.144882 105.785652,209.546921 113.290611,206.010803 
	C114.484436,206.402237 115.336662,206.757706 116.188889,207.113190 
z"/>
<path fill="#2A2A2A" opacity="1.000000" stroke="none" 
	d="
M121.082779,167.804932 
	C122.022636,168.655502 122.962502,169.506088 123.951294,171.098083 
	C125.018059,174.557114 126.035912,177.274734 127.053764,179.992340 
	C130.126740,189.316788 126.753433,196.909515 120.206711,203.690765 
	C119.155785,203.051849 118.563499,202.495102 118.119324,201.626556 
	C122.593239,195.598404 124.831169,189.111221 123.831207,182.035904 
	C123.298859,178.269196 121.304489,174.709122 120.107437,170.740967 
	C120.524147,169.552414 120.803467,168.678680 121.082779,167.804932 
z"/>
<path fill="#F6F6F6" opacity="1.000000" stroke="none" 
	d="
M66.707062,178.722015 
	C66.227310,180.542786 65.866554,181.963486 65.452103,183.595642 
	C63.084389,183.595642 60.822685,183.595642 58.169468,183.595642 
	C58.169468,179.460205 58.169468,175.403275 58.169468,170.960999 
	C61.482231,170.960999 64.704826,170.960999 68.411545,170.960999 
	C67.853455,173.552048 67.339752,175.936996 66.707062,178.722015 
z"/>
<path fill="#252525" opacity="1.000000" stroke="none" 
	d="
M149.122375,193.373154 
	C154.147629,190.079865 152.963089,195.007019 153.940781,197.110870 
	C154.733536,198.816742 155.276962,200.638489 155.965729,202.707916 
	C150.812714,204.863358 142.209244,201.557999 140.101212,196.329437 
	C142.512848,196.212738 144.756668,196.313202 146.901779,195.900558 
	C147.797623,195.728226 148.483643,194.465118 149.122375,193.373154 
z"/>
<path fill="#272727" opacity="1.000000" stroke="none" 
	d="
M53.893101,182.139496 
	C53.566010,182.932480 53.306248,183.602127 52.961655,183.649063 
	C46.177879,184.573196 39.384266,185.425079 32.491524,186.304581 
	C32.448128,186.222824 32.095482,185.845673 32.176971,185.670456 
	C35.217743,179.132919 49.320175,176.590561 53.893101,182.139496 
z"/>
<path fill="#252525" opacity="1.000000" stroke="none" 
	d="
M78.090683,172.017883 
	C77.268677,171.695389 76.446671,171.372894 75.292526,171.015961 
	C78.691765,163.224503 85.406197,159.403915 93.638054,157.483948 
	C94.005806,158.953751 94.008530,160.043655 93.773666,161.375290 
	C88.387619,165.083969 83.239151,168.550919 78.090683,172.017883 
z"/>
<path fill="#252525" opacity="1.000000" stroke="none" 
	d="
M121.030807,167.476547 
	C120.803467,168.678680 120.524147,169.552414 119.815994,170.577026 
	C113.967239,167.233612 108.547325,163.739334 103.174835,159.964294 
	C103.148392,158.780365 103.074516,157.877213 103.000648,156.974060 
	C110.483246,157.732758 116.748436,160.642670 121.030807,167.476547 
z"/>
<path fill="#282828" opacity="1.000000" stroke="none" 
	d="
M64.554428,141.066711 
	C64.483521,142.699158 63.401600,144.347122 63.545265,145.880219 
	C64.115425,151.964615 64.257347,151.951309 57.499790,152.004395 
	C57.040581,150.700211 56.996964,149.393906 56.992592,148.087463 
	C56.968788,140.977158 56.972118,140.977142 64.554428,141.066711 
z"/>
<path fill="#272727" opacity="1.000000" stroke="none" 
	d="
M74.014702,218.907532 
	C69.396690,218.935760 64.775063,219.069229 60.163475,218.910614 
	C59.142811,218.875519 58.157650,217.808029 57.156143,217.215927 
	C58.174629,216.484161 59.161324,215.179657 60.217175,215.121063 
	C64.492378,214.883759 68.788872,215.029816 73.540886,215.441788 
	C74.007744,216.868622 74.011223,217.888077 74.014702,218.907532 
z"/>
<path fill="#2A2A2A" opacity="1.000000" stroke="none" 
	d="
M79.476997,136.996689 
	C78.188522,136.789963 77.341110,136.584274 76.493698,136.378571 
	C76.545479,136.066101 76.597252,135.753616 76.649033,135.441132 
	C84.856667,135.441132 93.064308,135.441132 101.271942,135.441132 
	C101.301743,135.959991 101.331551,136.478851 101.361351,136.997711 
	C94.213593,136.997711 87.065826,136.997711 79.476997,136.996689 
z"/>
<path fill="#E1E1E1" opacity="1.000000" stroke="none" 
	d="
M165.787933,202.948334 
	C163.117508,206.553131 160.273117,209.460663 156.253967,209.029251 
	C158.927704,206.117981 161.833313,202.954239 164.767639,199.759247 
	C165.029373,200.480759 165.412735,201.537552 165.787933,202.948334 
z"/>
<path fill="#C6C6C6" opacity="1.000000" stroke="none" 
	d="
M169.232758,90.550354 
	C167.828262,87.673874 166.774567,84.945358 165.234070,80.956322 
	C168.430954,82.285278 169.953918,82.918381 172.535217,83.991440 
	C171.555130,86.218422 170.569336,88.458374 169.232758,90.550354 
z"/>
<path fill="#252525" opacity="1.000000" stroke="none" 
	d="
M48.548546,171.990021 
	C48.628315,168.427216 48.873856,165.222595 49.119396,162.017990 
	C49.965351,162.063263 50.811306,162.108551 51.657261,162.153824 
	C51.657261,165.576660 51.657261,168.999512 51.657261,172.422348 
	C50.676281,172.397644 49.695297,172.372940 48.548546,171.990021 
z"/>
<path fill="#2C2C2C" opacity="1.000000" stroke="none" 
	d="
M74.466141,218.936951 
	C74.011223,217.888077 74.007744,216.868622 74.009094,215.467834 
	C77.034401,215.071854 80.054886,215.057205 83.534561,215.443817 
	C83.988083,216.864517 83.982430,217.883987 83.976776,218.903458 
	C80.957039,218.924423 77.937302,218.945389 74.466141,218.936951 
z"/>
<path fill="#1F1F1F" opacity="1.000000" stroke="none" 
	d="
M120.986130,218.962524 
	C115.903259,218.962524 110.820381,218.962524 105.737511,218.962524 
	C105.710739,218.489349 105.683975,218.016174 105.657204,217.542999 
	C109.174980,217.026917 112.220779,212.755234 116.428436,217.270309 
	C117.133560,218.026978 118.900375,217.794220 120.584282,218.260498 
	C120.991943,218.502335 120.986130,218.962524 120.986130,218.962524 
z"/>
<path fill="#2C2C2C" opacity="1.000000" stroke="none" 
	d="
M102.551041,156.959961 
	C103.074516,157.877213 103.148392,158.780365 102.840668,160.189575 
	C99.643127,160.841614 96.827187,160.987595 94.011253,161.133560 
	C94.008530,160.043655 94.005806,158.953751 94.007950,157.456726 
	C96.709030,157.015030 99.405228,156.980453 102.551041,156.959961 
z"/>
<path fill="#252525" opacity="1.000000" stroke="none" 
	d="
M151.854858,178.685471 
	C150.521194,179.965378 149.037079,180.933884 147.193817,181.900726 
	C145.581665,179.545990 144.328674,177.192917 143.075668,174.839859 
	C143.419250,174.383743 143.762833,173.927628 144.106400,173.471512 
	C146.639069,175.105698 149.171738,176.739899 151.854858,178.685471 
z"/>
<path fill="#1F1F1F" opacity="1.000000" stroke="none" 
	d="
M70.443710,158.603638 
	C69.638908,156.939850 68.890587,155.435455 68.865204,153.918991 
	C68.857658,153.468430 71.095329,152.372498 71.923462,152.661880 
	C73.090729,153.069778 73.903488,154.492142 74.867828,155.480774 
	C73.504135,156.573318 72.140442,157.665863 70.443710,158.603638 
z"/>
<path fill="#181818" opacity="1.000000" stroke="none" 
	d="
M121.455444,218.974625 
	C120.986130,218.962524 120.991943,218.502335 120.988129,218.272736 
	C123.470497,218.031693 126.002449,218.305099 128.427856,217.915405 
	C130.247192,217.623093 131.898666,216.392761 133.685059,215.746323 
	C134.662582,215.392578 135.801239,215.160004 136.794708,215.320862 
	C137.244003,215.393616 137.973953,216.924103 137.785324,217.159683 
	C137.169983,217.928207 136.208237,218.881363 135.347580,218.913971 
	C130.878799,219.083252 126.400032,218.989105 121.455444,218.974625 
z"/>
<path fill="#252525" opacity="1.000000" stroke="none" 
	d="
M159.040680,187.625763 
	C158.007370,188.792160 156.960205,189.605835 154.704453,191.358612 
	C154.704453,187.914642 154.704453,185.298904 154.866302,182.325256 
	C156.361053,183.735901 157.693924,185.504456 159.040680,187.625763 
z"/>
<path fill="#252525" opacity="1.000000" stroke="none" 
	d="
M84.422386,218.935806 
	C83.982430,217.883987 83.988083,216.864517 83.986801,215.463516 
	C86.833977,215.877243 89.688080,216.672501 92.542191,217.467758 
	C92.492813,217.967880 92.443443,218.468018 92.394066,218.968155 
	C89.885376,218.968155 87.376686,218.968155 84.422386,218.935806 
z"/>
<path fill="#252525" opacity="1.000000" stroke="none" 
	d="
M65.598404,207.037048 
	C69.125725,207.020203 72.233177,207.020203 75.340630,207.020203 
	C75.334366,207.644196 75.328102,208.268204 75.321838,208.892197 
	C71.742973,208.892197 68.164101,208.892197 64.585236,208.892197 
	C64.782997,208.279434 64.980759,207.666672 65.598404,207.037048 
z"/>
<path fill="#252525" opacity="1.000000" stroke="none" 
	d="
M117.971222,201.938354 
	C118.563499,202.495102 119.155785,203.051849 119.912979,203.875763 
	C118.996361,205.094955 117.914841,206.046982 116.511108,207.056091 
	C115.336662,206.757706 114.484436,206.402237 113.453613,205.728363 
	C114.840424,204.252777 116.405823,203.095566 117.971222,201.938354 
z"/>
<path fill="#252525" opacity="1.000000" stroke="none" 
	d="
M144.790619,187.269348 
	C145.874130,187.206985 146.712921,187.419144 147.479080,187.612930 
	C146.179504,188.992813 145.096756,190.142471 143.999878,191.668442 
	C143.023514,191.428192 142.061264,190.811630 141.098999,190.195068 
	C142.247955,189.311340 143.396927,188.427612 144.790619,187.269348 
z"/>
<path fill="#252525" opacity="1.000000" stroke="none" 
	d="
M127.053131,179.591827 
	C126.035912,177.274734 125.018059,174.557114 124.000793,171.418259 
	C125.018425,173.728455 126.035461,176.459885 127.053131,179.591827 
z"/>
<path fill="#060606" opacity="1.000000" stroke="none" 
	d="
M183.998749,95.420624 
	C183.998718,94.039818 183.998718,93.067902 183.998718,92.095978 
	C184.268692,92.098099 184.538666,92.100212 184.808640,92.102333 
	C184.808640,96.198318 184.808640,100.294304 184.808640,104.390289 
	C184.538681,104.383209 184.268738,104.376122 183.998779,104.369034 
	C183.998779,101.522530 183.998779,98.676018 183.998749,95.420624 
z"/>
<path fill="#181818" opacity="1.000000" stroke="none" 
	d="
M191.249542,194.604568 
	C191.061264,189.653366 191.061264,185.010864 191.061264,180.368362 
	C191.413635,180.369492 191.766006,180.370605 192.118378,180.371735 
	C191.891510,185.218903 191.664658,190.066086 191.249542,194.604568 
z"/>
<path fill="#F9F9F9" opacity="1.000000" stroke="none" 
	d="
M48.991180,92.000107 
	C48.644199,93.958534 48.297218,95.916962 47.950241,97.875389 
	C47.542538,97.848648 47.134838,97.821915 46.727139,97.795174 
	C46.586864,96.117531 46.446590,94.439888 46.702850,92.385437 
	C47.729984,92.005798 48.360580,92.002953 48.991180,92.000107 
z"/>
<path fill="#F7F7F7" opacity="1.000000" stroke="none" 
	d="
M49.160378,91.720726 
	C48.360580,92.002953 47.729984,92.005798 46.784119,92.009789 
	C46.370701,91.563431 46.272549,91.115921 46.258324,90.330467 
	C47.131207,90.018585 47.920155,90.044655 49.101791,90.118248 
	C49.439507,90.590958 49.384541,91.016151 49.160378,91.720726 
z"/>
<path fill="#F7F7F7" opacity="1.000000" stroke="none" 
	d="
M51.161308,71.074493 
	C50.658752,70.911682 50.364552,70.547897 50.070351,70.184113 
	C50.981258,70.062599 51.892170,69.941093 52.907871,70.084137 
	C52.464996,70.523628 51.917332,70.698570 51.161308,71.074493 
z"/>
<path fill="#F7F7F7" opacity="1.000000" stroke="none" 
	d="
M72.125969,74.382019 
	C71.963470,73.676186 71.980392,73.185547 72.006096,72.326797 
	C72.764732,72.609833 73.514580,73.260979 74.447662,74.150040 
	C74.512314,74.508865 74.393738,74.629791 74.089203,74.923767 
	C73.370621,74.930290 72.838005,74.763763 72.125969,74.382019 
z"/>
<path fill="#F7F7F7" opacity="1.000000" stroke="none" 
	d="
M63.593536,63.341564 
	C62.857521,62.964153 61.958950,62.298176 61.069328,61.214943 
	C61.862514,61.549454 62.646748,62.301224 63.593536,63.341564 
z"/>
<path fill="#252525" opacity="1.000000" stroke="none" 
	d="
M145.139862,192.369888 
	C145.606613,192.229095 146.267227,192.304474 146.967438,192.672211 
	C146.449249,192.838394 145.891510,192.712219 145.139862,192.369888 
z"/>
<path fill="#252525" opacity="1.000000" stroke="none" 
	d="
M160.923508,190.689346 
	C160.329865,190.514435 159.714203,190.018723 159.091614,189.189728 
	C159.690292,189.360474 160.295883,189.864502 160.923508,190.689346 
z"/>
<path fill="#060606" opacity="1.000000" stroke="none" 
	d="
M180.862350,109.314667 
	C180.979599,109.631279 180.887238,109.978371 180.794876,110.325455 
	C180.747482,109.998680 180.700104,109.671906 180.862350,109.314667 
z"/>
<path fill="#060606" opacity="1.000000" stroke="none" 
	d="
M183.528534,87.545776 
	C183.477798,87.575150 183.579285,87.516403 183.528534,87.545776 
z"/>
<path fill="#181818" opacity="1.000000" stroke="none" 
	d="
M104.615494,29.618298 
	C108.873451,29.171818 112.741119,28.970602 116.608780,28.769386 
	C109.039871,32.538425 101.819214,35.742256 93.049477,31.695793 
	C87.295982,29.041065 80.403976,27.254662 73.857086,34.365623 
	C76.795868,26.979330 79.509285,25.326813 85.060097,26.522943 
	C89.906479,27.567278 94.696693,28.875526 99.550301,29.881008 
	C101.043320,30.190306 102.663338,29.886581 104.615494,29.618298 
z"/>
<path fill="#252525" opacity="1.000000" stroke="none" 
	d="
M107.250275,49.091881 
	C102.747017,49.769188 98.234726,51.207611 98.136055,44.209846 
	C107.858650,44.209846 117.562012,44.209846 127.265373,44.209846 
	C127.344902,44.671539 127.424431,45.133236 127.503960,45.594929 
	C120.895256,46.745216 114.286552,47.895500 107.250275,49.091881 
z"/>
<path fill="#181818" opacity="1.000000" stroke="none" 
	d="
M84.248611,60.359108 
	C88.489441,56.559967 92.783531,53.142925 96.910568,49.858818 
	C97.940590,52.844395 97.940590,52.844395 93.521935,57.171276 
	C94.405876,58.414925 95.317009,59.696835 97.249847,62.416222 
	C92.041298,61.742420 88.171585,61.241814 84.248611,60.359108 
z"/>
<path fill="#181818" opacity="1.000000" stroke="none" 
	d="
M142.182022,36.119946 
	C141.062210,40.683933 139.940277,44.814335 138.818359,48.944736 
	C137.956238,48.719349 137.094131,48.493961 136.232025,48.268574 
	C135.627304,42.245808 139.609283,37.161797 140.444977,31.433836 
	C140.898956,31.417412 141.352951,31.400986 141.806931,31.384562 
	C141.931259,32.818493 142.055588,34.252426 142.182022,36.119946 
z"/>
<path fill="#F7F7F7" opacity="1.000000" stroke="none" 
	d="
M61.696812,68.123825 
	C61.776566,68.409103 61.692284,68.775604 61.484974,68.868996 
	C61.333801,68.937096 61.020447,68.645149 60.779396,68.513718 
	C61.012947,68.371811 61.246502,68.229904 61.696812,68.123825 
z"/>
<path fill="#060606" opacity="1.000000" stroke="none" 
	d="
M110.674316,110.062325 
	C107.692741,101.903809 109.641418,95.131172 115.756844,89.932648 
	C121.762596,84.827362 128.790741,84.516800 135.839249,87.845703 
	C142.663528,91.068733 145.991348,96.709412 146.020370,104.181992 
	C146.051758,112.259140 140.110962,119.343277 131.945953,121.274010 
	C123.038094,123.380409 115.464798,119.486214 110.674316,110.062325 
M121.240074,96.960281 
	C121.870811,98.290459 122.501549,99.620636 123.132286,100.950813 
	C123.976814,100.090652 124.821342,99.230484 125.665871,98.370316 
	C124.361954,97.703796 123.058037,97.037277 121.240074,96.960281 
z"/>
<path fill="#050505" opacity="1.000000" stroke="none" 
	d="
M72.490784,86.006866 
	C81.564331,85.078835 88.308647,88.330963 92.537987,95.838158 
	C96.107018,102.173302 94.836563,110.544853 90.194366,115.874611 
	C85.009453,121.827469 76.506958,123.926674 69.374435,121.014870 
	C61.724991,117.892044 57.401947,110.911079 57.907654,102.497993 
	C58.394955,94.391106 63.441090,88.519852 72.490784,86.006866 
M75.379417,98.087830 
	C73.622864,98.046478 71.590462,97.465630 70.214714,98.169060 
	C69.408218,98.581429 69.385429,101.070839 69.562614,102.560204 
	C69.622620,103.064606 71.995529,103.943642 72.254753,103.665741 
	C73.614830,102.207726 74.635971,100.433540 75.379417,98.087830 
z"/>
<path fill="#020202" opacity="1.000000" stroke="none" 
	d="
M60.623093,124.314537 
	C60.600685,124.108681 60.797344,123.725037 61.122078,123.544189 
	C61.114151,123.876907 60.978153,124.006836 60.623093,124.314537 
z"/>
<path fill="#020202" opacity="1.000000" stroke="none" 
	d="
M41.008038,196.011597 
	C40.579319,196.147491 40.140659,196.270264 39.702003,196.393051 
	C39.968113,196.261780 40.234222,196.130493 40.737610,195.987000 
	C40.974884,195.974777 40.998096,195.998459 41.008038,196.011597 
z"/>
<path fill="#030303" opacity="1.000000" stroke="none" 
	d="
M118.119331,201.626556 
	C116.405823,203.095566 114.840424,204.252777 113.112022,205.692429 
	C105.785652,209.546921 98.306923,210.144882 90.709213,207.864044 
	C87.635468,206.941330 84.788147,205.264389 81.458870,203.925125 
	C80.684570,202.337189 80.682327,200.492630 79.830215,199.214813 
	C74.160309,190.712341 75.098373,181.849472 78.057289,172.414139 
	C83.239151,168.550919 88.387619,165.083969 93.773666,161.375290 
	C96.827187,160.987595 99.643127,160.841614 102.793236,160.470352 
	C108.547325,163.739334 113.967239,167.233612 119.678589,170.891846 
	C121.304489,174.709122 123.298859,178.269196 123.831207,182.035904 
	C124.831169,189.111221 122.593239,195.598404 118.119331,201.626556 
M91.844498,184.050934 
	C93.239235,184.541565 94.902290,185.756287 95.968781,185.361069 
	C97.781158,184.689484 100.756577,182.265961 100.563690,181.863815 
	C99.270409,179.167343 97.269501,176.810257 95.498085,174.343109 
	C93.677010,175.792877 91.855934,177.242645 89.204086,178.621826 
	C84.503036,183.396927 86.797913,193.467606 93.017715,197.028702 
	C99.391258,200.677795 108.124229,198.791840 111.157623,192.530380 
	C111.623131,191.569519 110.776466,189.972946 110.277618,187.263229 
	C106.069931,193.079117 101.937134,195.518661 96.724556,193.563843 
	C92.645073,192.033936 90.600563,188.611542 91.844498,184.050934 
M113.519958,199.017532 
	C113.780701,198.167023 114.041443,197.316513 114.302193,196.466003 
	C113.088867,196.607086 111.689850,196.406982 110.694511,196.948624 
	C106.498741,199.231949 102.423386,201.736526 98.119217,204.268860 
	C103.720329,204.852371 108.994392,204.461960 113.519958,199.017532 
z"/>
<path fill="#272727" opacity="1.000000" stroke="none" 
	d="
M121.497101,96.665520 
	C123.058037,97.037277 124.361954,97.703796 125.665871,98.370316 
	C124.821342,99.230484 123.976814,100.090652 123.132286,100.950813 
	C122.501549,99.620636 121.870811,98.290459 121.497101,96.665520 
z"/>
<path fill="#272727" opacity="1.000000" stroke="none" 
	d="
M75.577133,98.428513 
	C74.635971,100.433540 73.614830,102.207726 72.254753,103.665741 
	C71.995529,103.943642 69.622620,103.064606 69.562614,102.560204 
	C69.385429,101.070839 69.408218,98.581429 70.214714,98.169060 
	C71.590462,97.465630 73.622864,98.046478 75.577133,98.428513 
z"/>
<path fill="#ECECEC" opacity="1.000000" stroke="none" 
	d="
M91.121788,184.026871 
	C90.600563,188.611542 92.645073,192.033936 96.724556,193.563843 
	C101.937134,195.518661 106.069931,193.079117 110.277618,187.263229 
	C110.776466,189.972946 111.623131,191.569519 111.157623,192.530380 
	C108.124229,198.791840 99.391258,200.677795 93.017715,197.028702 
	C86.797913,193.467606 84.503036,183.396927 89.647186,179.053360 
	C90.434120,180.998886 90.777954,182.512878 91.121788,184.026871 
z"/>
<path fill="#2A2A2A" opacity="1.000000" stroke="none" 
	d="
M91.483139,184.038910 
	C90.777954,182.512878 90.434120,180.998886 90.062576,179.088654 
	C91.855934,177.242645 93.677010,175.792877 95.498077,174.343109 
	C97.269501,176.810257 99.270409,179.167343 100.563690,181.863815 
	C100.756577,182.265961 97.781158,184.689484 95.968781,185.361069 
	C94.902290,185.756287 93.239235,184.541565 91.483139,184.038910 
z"/>
<path fill="#252525" opacity="1.000000" stroke="none" 
	d="
M113.266098,199.277924 
	C108.994392,204.461960 103.720329,204.852371 98.119217,204.268860 
	C102.423386,201.736526 106.498741,199.231949 110.694511,196.948624 
	C111.689850,196.406982 113.088867,196.607086 114.302193,196.466003 
	C114.041443,197.316513 113.780701,198.167023 113.266098,199.277924 
z"/>
</svg>